<svg xmlns="http://www.w3.org/2000/svg" width="100%" height="100%" viewBox="0 0 802 177" fill="none"
    preserveAspectRatio="xMidYMid meet" aria-hidden="true" role="img">
    <g clip-path="url(#clip0_10_25)">
        <path
            d="M216 123.7C216 91.8 234 72 262 72C290 72 307 90 307 122.9C307 155.8 307 125.6 307 126.8C307 128.3 305.7 129.5 304.1 129.5H247.8L234.4 129.3C235.4 148.3 246.2 159 263 159C279.8 159 284.7 153.6 288.4 142.9C288.9 141.6 290.2 140.7 291.6 140.9L302.6 142.1C304.5 142.3 305.7 144.2 305.2 146C299.2 164.9 283.6 175.1 263.2 175.1C242.8 175.1 216.2 156.9 216.2 123.8L216 123.7ZM248.2 114.8H275.4L289 115.2C287.6 96.4 276.4 87.9 262 87.9C247.6 87.9 236.1 96.4 234.8 115.2L248.2 114.8Z"
            fill="currentColor"></path>
        <path
            d="M335.3 142.1V89.8L324.4 90.4H317.9C316.2 90.4 314.9 89 314.9 87.4V77C314.9 75.3 316.3 74 317.9 74H324.4L335.7 74.6L335.3 64.5V48.1C335.3 46.4 336.7 45.1 338.3 45.1H351.1C352.8 45.1 354.1 46.5 354.1 48.1V64.5L353.5 74.6L364.2 74H376C377.7 74 379 75.4 379 77V87.4C379 89.1 377.6 90.4 376 90.4H364.2L354.1 89.8V141.1C354.1 153.8 360.2 157.5 368.3 157.5C376.4 157.5 372.6 157.4 375.6 157.1C377.4 156.9 378.9 158.3 378.9 160.1V170.2C378.9 171.7 377.8 173 376.3 173.2C372.1 173.8 369.1 174 365.3 174C344.6 174 335.3 162.7 335.3 142.1Z"
            fill="currentColor"></path>
        <path
            d="M390 123.7C390 93.6 407.4 72 436.4 72C465.4 72 475.5 84.8 479.3 107.2C479.6 108.9 478.4 110.6 476.6 110.7L464.6 111.8C463.1 111.9 461.7 110.9 461.4 109.4C458.5 94.9 448.9 87.9 436.2 87.9C423.5 87.9 408.4 101.8 408.4 123.8C408.4 145.8 419.2 159.1 436.6 159.1C454 159.1 459.2 152.4 462.2 137.6C462.5 136.1 463.9 135.1 465.4 135.2L477.3 136.3C479 136.5 480.3 138.1 480 139.8C476.5 162.2 460 175.2 436.6 175.2C413.2 175.2 390 153.8 390 123.9V123.7Z"
            fill="currentColor"></path>
        <path
            d="M496 170V26C496 24.3 497.3 23 499 23H511.9C513.6 23 514.9 24.4 514.9 26V80.8L513.5 92.8H516.3C524.3 79.8 536 73.1 550.7 73.1C565.4 73.1 584.1 86.3 584.1 112.6V170C584.1 171.7 582.8 173 581.1 173H568.2C566.5 173 565.2 171.6 565.2 170V116.3C565.2 96.2 556 89.6 543.2 89.6C530.4 89.6 514.9 101 514.9 124.5V169.9C514.9 171.6 513.6 172.9 511.9 172.9H499C497.3 172.9 496 171.6 496 169.9V170Z"
            fill="currentColor"></path>
        <path
            d="M599 123.7C599 91.8 617 72 645 72C673 72 690 90 690 122.9C690 155.8 690 127.7 689.8 129.4H630.8L617.4 129.2C618.4 148.2 629.2 158.9 646 158.9C662.8 158.9 667.7 153.5 671.4 142.8C671.9 141.5 673.2 140.6 674.6 140.8L685.6 142C687.5 142.2 688.7 144.1 688.2 145.9C682.2 164.8 666.6 175 646.2 175C625.8 175 599.2 156.8 599.2 123.7H599ZM631.2 114.8H658.4L672 115.2C670.6 96.4 659.4 87.9 645 87.9C630.6 87.9 619.1 96.4 617.8 115.2L631.2 114.8Z"
            fill="currentColor"></path>
        <path
            d="M703 123.7C703 92 721.4 73 744.6 73C767.8 73 770.9 82.5 775.7 92.1H778.5L777.3 80.3V26C777.3 24.3 778.7 23 780.3 23H793.1C794.8 23 796.1 24.3 796.1 26V169.8C796.1 171.5 794.7 172.8 793.1 172.8H780.3C778.6 172.8 777.3 171.5 777.3 169.8V166.5L778.5 155.3H775.7C771.2 165.2 760.9 174 744.6 174C721.4 174 703 155.9 703 123.7ZM777 123.7C777 102.6 766.1 89.2 749.7 89.2C733.3 89.2 722.6 101.8 722.6 123.7C722.6 145.6 734.1 157.8 749.7 157.8C765.3 157.8 777 144.6 777 123.7Z"
            fill="currentColor"></path>
        <path fill-rule="evenodd" clip-rule="evenodd"
            d="M30 22C26.7 22 24 24.7 24 28V170C24 173.3 26.7 176 30 176H172C175.3 176 178 173.3 178 170V28C178 24.7 175.3 22 172 22H30ZM52.1 152H151.1C152.7 152 153.6 150.2 152.5 149.1L139.9 136.1C137.7 133.5 134.3 132 130.8 132H52.1C51 132 50 132.9 50 134V150C50 151.1 50.9 152 52.1 152Z"
            fill="currentColor"></path>
    </g>
    <defs>
        <clipPath id="clip0_10_25">
            <rect width="802" height="177" fill="currentColor"></rect>
        </clipPath>
    </defs>
</svg>