<svg xmlns="http://www.w3.org/2000/svg" width="100%" viewBox="0 0 160 32" fill="none" class="logo">
    <g clip-path="url(#clip0_20881_3554)">
        <g class="logo_icon" style="translate: none; rotate: none; scale: none; transform-origin: 0px 0px;"
            data-svg-origin="13.070150375366211 13.140549659729004" transform="matrix(0,1,-1,0,26.2107,0.0704)">
            <path style="translate: none; rotate: none; scale: none; transform-origin: 0px 0px;" data-svg-origin="0 0"
                transform="matrix(1,0,0,1,0,0)"></path>
            <path
                d="M21.3774 7.98926L25.6763 3.68158C25.0426 2.24825 23.8834 1.10204 22.4408 0.489184L18.1672 4.77148V0H13.627V4.5716C13.627 8.97205 17.1864 12.5388 21.5779 12.5388H26.1403V7.98926H21.3785H21.3774Z"
                fill="#FB4F2F"
                style="fill: color(display-p3 0.9843 0.3098 0.1843); fill-opacity: 1; translate: none; rotate: none; scale: none; transform-origin: 0px 0px;"
                data-svg-origin="19.883650302886963 6.269400119781494" transform="matrix(1,0,0,1,0,0)"></path>
            <path
                d="M12.5134 4.5716V0H7.97307V4.77148L3.71158 0.501331C2.27346 1.12082 1.11854 2.27366 0.491498 3.71029L4.76181 7.98926H0V12.5388H4.56233C8.95387 12.5388 12.5134 8.97205 12.5134 4.5716Z"
                fill="#FB4F2F"
                style="fill: color(display-p3 0.9843 0.3098 0.1843); fill-opacity: 1; translate: none; rotate: none; scale: none; transform-origin: 0px 0px;"
                data-svg-origin="6.256700038909912 6.269400119781494" transform="matrix(1,0,0,1,0,0)"></path>
            <path
                d="M13.6261 21.7096V26.2811H18.1665V21.5097L22.4399 25.792C23.8814 25.1791 25.0419 24.0318 25.6754 22.5996L21.3765 18.292H26.1384V13.7424H21.5761C17.1844 13.7424 13.625 17.3091 13.625 21.7096H13.6261Z"
                fill="#FB4F2F"
                style="fill: color(display-p3 0.9843 0.3098 0.1843); fill-opacity: 1; translate: none; rotate: none; scale: none; transform-origin: 0px 0px;"
                data-svg-origin="19.881699562072754 20.011749744415283" transform="matrix(1,0,0,1,0,0)"></path>
            <path
                d="M4.56233 13.7424H0V18.292H4.76181L0.491498 22.5709C1.11854 24.0075 2.27346 25.1593 3.71048 25.7798L7.97197 21.5097V26.2811H12.5123V21.7096C12.5123 17.3091 8.95277 13.7424 4.56123 13.7424H4.56233Z"
                fill="#FB4F2F"
                style="fill: color(display-p3 0.9843 0.3098 0.1843); fill-opacity: 1; translate: none; rotate: none; scale: none; transform-origin: 0px 0px;"
                data-svg-origin="6.256149768829346 20.011749744415283" transform="matrix(1,0,0,1,0,0)"></path>
            <path
                d="M17.7716 13.1406C15.5919 12.2981 13.8474 10.571 12.9802 8.40009C12.1118 10.571 10.3684 12.2981 8.1875 13.1406C10.3684 13.9832 12.1118 15.7102 12.9802 17.8812C13.8485 15.7102 15.5919 13.9832 17.7716 13.1406Z"
                fill="#FB4F2F"
                style="fill: color(display-p3 0.9843 0.3098 0.1843); fill-opacity: 1; translate: none; rotate: none; scale: none; transform-origin: 0px 0px;"
                data-svg-origin="12.9795503616333 13.140645503997803" transform="matrix(1,0,0,1,0,0)"></path>
        </g>
        <path
            d="M39.7744 17.6704C39.8857 19.053 40.4421 20.168 41.4436 21.0154C42.4674 21.8406 43.7915 22.2532 45.4163 22.2532C46.8406 22.2532 47.9869 21.9522 48.8548 21.35C49.7451 20.7256 50.1902 19.867 50.1902 18.7743C50.1902 17.9936 49.9453 17.3804 49.4557 16.9344C48.9884 16.466 48.3429 16.1092 47.5195 15.8639C46.696 15.6186 45.5387 15.3621 44.0475 15.0945C42.5341 14.8269 41.2322 14.4813 40.1417 14.0575C39.0734 13.6115 38.1943 12.9425 37.5044 12.0504C36.8366 11.1584 36.5027 9.98758 36.5027 8.53799C36.5027 7.19994 36.8477 6.00683 37.5376 4.95867C38.2499 3.91052 39.2292 3.09653 40.4755 2.5167C41.7441 1.93686 43.1906 1.64695 44.8154 1.64695C46.4846 1.64695 47.9757 1.95917 49.2888 2.58361C50.6018 3.20803 51.6369 4.06662 52.3934 5.15938C53.1502 6.25214 53.5619 7.501 53.6287 8.90598H49.8563C49.7227 7.7017 49.1998 6.7316 48.2873 5.99567C47.3748 5.25973 46.2175 4.89176 44.8154 4.89176C43.4578 4.89176 42.3673 5.19284 41.5438 5.79496C40.7425 6.37479 40.3419 7.19994 40.3419 8.2704C40.3419 9.02863 40.5757 9.63075 41.043 10.0768C41.5326 10.5228 42.1781 10.8573 42.9792 11.0803C43.7805 11.3033 44.9266 11.5487 46.4178 11.8163C47.9313 12.0839 49.2332 12.4407 50.3237 12.8867C51.4143 13.3327 52.3044 13.9906 52.9944 14.8604C53.6843 15.7301 54.0293 16.8786 54.0293 18.306C54.0293 19.6886 53.6621 20.9262 52.9276 22.0191C52.1932 23.1118 51.1694 23.9703 49.8563 24.5949C48.5432 25.197 47.0522 25.498 45.3829 25.498C43.5356 25.498 41.9109 25.1636 40.5089 24.4945C39.1068 23.8254 38.0051 22.9 37.2038 21.7179C36.4249 20.5136 36.0243 19.1422 36.002 17.6034L39.7744 17.6704ZM72.0644 22.1528V25.2972H70.1615C69.0488 25.2972 68.2475 25.0632 67.758 24.5949C67.2683 24.1266 67.0235 23.4463 67.0235 22.5543C65.7326 24.5167 63.852 25.498 61.3816 25.498C59.4676 25.498 57.932 25.052 56.7746 24.1599C55.6173 23.2679 55.0387 22.0414 55.0387 20.4802C55.0387 18.7184 55.6619 17.3692 56.9081 16.4326C58.1544 15.4736 59.9684 14.9942 62.3498 14.9942H66.6563V13.9572C66.6563 12.9982 66.3224 12.2511 65.6548 11.7159C64.9871 11.1584 64.0634 10.8796 62.8839 10.8796C61.8378 10.8796 60.9699 11.1138 60.28 11.5821C59.6122 12.0281 59.2117 12.6303 59.0781 13.3885H55.5395C55.7175 11.6713 56.4742 10.3444 57.8095 9.40774C59.1449 8.4488 60.8919 7.96932 63.0509 7.96932C65.3432 7.96932 67.1125 8.50455 68.3587 9.575C69.6052 10.6455 70.2283 12.1842 70.2283 14.1913V20.9486C70.2283 21.7514 70.6067 22.1528 71.3634 22.1528H72.0644ZM66.6563 17.6704H62.1828C61.0701 17.6704 60.2132 17.8934 59.6122 18.3393C59.0113 18.7631 58.7109 19.3987 58.7109 20.2461C58.7109 20.9819 58.9891 21.5731 59.5455 22.0191C60.1242 22.465 60.9031 22.688 61.8824 22.688C63.3735 22.688 64.5307 22.2866 65.3543 21.4839C66.2 20.681 66.6339 19.6105 66.6563 18.2725V17.6704ZM73.7947 8.17003V6.464C73.7947 4.94751 74.1841 3.81016 74.9632 3.05193C75.7421 2.27139 76.944 1.88112 78.5686 1.88112H82.0405V5.05903H79.0693C78.4906 5.05903 78.0679 5.19284 77.8007 5.46044C77.5559 5.72805 77.4335 6.15178 77.4335 6.73162V8.17003H82.0071V11.3479H77.4335V25.2972H73.7947V11.3479H70.8234V8.17003H73.7947ZM81.1232 16.767C81.1232 15.0053 81.4682 13.4665 82.1581 12.1508C82.8703 10.8127 83.8496 9.78687 85.0959 9.07322C86.3645 8.33729 87.8111 7.96932 89.4358 7.96932C91.0828 7.96932 92.5295 8.30384 93.7757 8.97287C95.0442 9.64191 96.0347 10.5897 96.7468 11.8163C97.4813 13.0428 97.8597 14.4813 97.8819 16.1315C97.8819 16.5775 97.8485 17.0347 97.7817 17.503H84.8957V17.7038C84.9847 19.1979 85.452 20.38 86.2977 21.2496C87.1434 22.1193 88.2673 22.5543 89.6696 22.5543C90.7823 22.5543 91.717 22.2978 92.4737 21.7849C93.2304 21.2496 93.7312 20.5026 93.9759 19.5436H97.5815C97.27 21.2831 96.4242 22.7104 95.0442 23.8254C93.6867 24.9405 91.9841 25.498 89.9366 25.498C88.1561 25.498 86.5981 25.1411 85.2628 24.4276C83.9498 23.6916 82.9259 22.6658 82.1915 21.35C81.4792 20.0343 81.1232 18.5066 81.1232 16.767ZM94.2097 14.8604C94.0539 13.6115 93.5532 12.6414 92.7074 11.9501C91.8839 11.2364 90.8379 10.8796 89.5694 10.8796C88.3897 10.8796 87.366 11.2476 86.4981 11.9835C85.6524 12.6972 85.1626 13.6561 85.0291 14.8604H94.2097ZM100.433 11.3479H97.4616V8.17003H100.433V3.38645H104.071V8.17003H108.178V11.3479H104.071V20.2796C104.071 20.9486 104.205 21.428 104.472 21.7179C104.739 21.9856 105.195 22.1193 105.841 22.1193H108.578V25.2972H105.106C103.482 25.2972 102.291 24.9181 101.534 24.1599C100.8 23.4018 100.433 22.2309 100.433 20.6475V11.3479ZM110.647 8.17003L115.421 21.3835L120.061 8.17003H123.9L116.155 27.9734C115.755 28.9993 115.387 29.7798 115.053 30.3151C114.72 30.8725 114.308 31.2851 113.818 31.5528C113.329 31.8426 112.672 31.9877 111.849 31.9877H107.976V28.8098H110.513C111.203 28.8098 111.682 28.6982 111.949 28.4751C112.216 28.2745 112.494 27.8062 112.783 27.0702L113.484 25.4311L106.808 8.17003H110.647ZM124.756 1.88112H128.595V13.9572L139.311 1.88112H143.985L135.405 11.649L144.619 25.2972H139.979L132.668 14.5928L128.595 19.1757V25.2972H124.756V1.88112ZM146.829 1.31244C147.452 1.31244 147.975 1.5243 148.398 1.94802C148.821 2.34944 149.033 2.86236 149.033 3.4868C149.033 4.11122 148.821 4.63531 148.398 5.05903C147.975 5.46044 147.452 5.66116 146.829 5.66116C146.206 5.66116 145.683 5.46044 145.26 5.05903C144.837 4.63531 144.626 4.11122 144.626 3.4868C144.626 2.86236 144.837 2.34944 145.26 1.94802C145.683 1.5243 146.206 1.31244 146.829 1.31244ZM145.026 8.17003H148.632V25.2972H145.026V8.17003ZM151.599 11.3479H148.628V8.17003H151.599V3.38645H155.238V8.17003H159.344V11.3479H155.238V20.2796C155.238 20.9486 155.371 21.428 155.638 21.7179C155.905 21.9856 156.362 22.1193 157.007 22.1193H159.744V25.2972H156.273C154.648 25.2972 153.457 24.9181 152.7 24.1599C151.966 23.4018 151.599 22.2309 151.599 20.6475V11.3479Z"
            fill="currentColor"></path>
    </g>
</svg>